<mxfile host="app.diagrams.net" modified="2021-11-15T09:40:26.254Z" agent="5.0 (Macintosh; Intel Mac OS X 10_15_7) AppleWebKit/537.36 (KHTML, like Gecko) Chrome/95.0.4638.69 Safari/537.36" etag="tooN4n7luHqtNjbepTD0" version="15.7.3" type="github">
  <diagram name="Page-1" id="efa7a0a1-bf9b-a30e-e6df-94a7791c09e9">
    <mxGraphModel dx="1426" dy="712" grid="1" gridSize="10" guides="1" tooltips="1" connect="1" arrows="1" fold="1" page="1" pageScale="1" pageWidth="826" pageHeight="1169" background="none" math="0" shadow="0">
      <root>
        <mxCell id="0" />
        <mxCell id="1" parent="0" />
        <mxCell id="sF7MwyPJBfuZg916_Yfn-117" value="lazs" style="swimlane;startSize=22;" vertex="1" parent="1">
          <mxGeometry x="60" y="18.36" width="510" height="161.64" as="geometry" />
        </mxCell>
        <mxCell id="sF7MwyPJBfuZg916_Yfn-118" value="shark" style="swimlane;" vertex="1" parent="sF7MwyPJBfuZg916_Yfn-117">
          <mxGeometry y="181.64" width="510" height="878.36" as="geometry" />
        </mxCell>
        <mxCell id="sF7MwyPJBfuZg916_Yfn-116" value="&lt;p style=&quot;margin: 4px 0px 0px ; text-align: center&quot;&gt;&lt;b&gt;&lt;u&gt;tel_email_contacts&lt;/u&gt;&lt;/b&gt;&lt;br&gt;&lt;/p&gt;&lt;hr&gt;&lt;p style=&quot;margin: 0px 0px 0px 8px&quot;&gt;dt&lt;/p&gt;&lt;hr&gt;&lt;p style=&quot;margin: 0px 0px 0px 8px&quot;&gt;uuid&lt;/p&gt;&lt;p style=&quot;margin: 0px 0px 0px 8px&quot;&gt;contact_id&lt;/p&gt;&lt;p style=&quot;margin: 0px 0px 0px 8px&quot;&gt;encrypted_address&lt;br&gt;&lt;/p&gt;" style="verticalAlign=top;align=left;overflow=fill;fontSize=12;fontFamily=Helvetica;html=1;strokeColor=#003366;shadow=1;fillColor=#D4E1F5;fontColor=#003366" vertex="1" parent="sF7MwyPJBfuZg916_Yfn-118">
          <mxGeometry x="20" y="742.8199999999999" width="160" height="119.18" as="geometry" />
        </mxCell>
        <mxCell id="sF7MwyPJBfuZg916_Yfn-127" style="edgeStyle=orthogonalEdgeStyle;rounded=0;orthogonalLoop=1;jettySize=auto;html=1;exitX=0;exitY=0.5;exitDx=0;exitDy=0;entryX=1.013;entryY=0.414;entryDx=0;entryDy=0;curved=1;entryPerimeter=0;" edge="1" parent="sF7MwyPJBfuZg916_Yfn-118" source="sF7MwyPJBfuZg916_Yfn-173" target="sF7MwyPJBfuZg916_Yfn-143">
          <mxGeometry relative="1" as="geometry" />
        </mxCell>
        <mxCell id="sF7MwyPJBfuZg916_Yfn-144" style="edgeStyle=orthogonalEdgeStyle;curved=1;rounded=0;orthogonalLoop=1;jettySize=auto;html=1;exitX=0.5;exitY=1;exitDx=0;exitDy=0;entryX=1;entryY=0.75;entryDx=0;entryDy=0;" edge="1" parent="sF7MwyPJBfuZg916_Yfn-118" source="sF7MwyPJBfuZg916_Yfn-173" target="sF7MwyPJBfuZg916_Yfn-115">
          <mxGeometry relative="1" as="geometry" />
        </mxCell>
        <mxCell id="sF7MwyPJBfuZg916_Yfn-174" style="edgeStyle=orthogonalEdgeStyle;curved=1;rounded=0;orthogonalLoop=1;jettySize=auto;html=1;exitX=0.5;exitY=0;exitDx=0;exitDy=0;entryX=0.5;entryY=1;entryDx=0;entryDy=0;startArrow=classic;startFill=1;strokeWidth=1;endArrow=none;endFill=0;" edge="1" parent="sF7MwyPJBfuZg916_Yfn-118" source="sF7MwyPJBfuZg916_Yfn-173" target="20">
          <mxGeometry relative="1" as="geometry" />
        </mxCell>
        <mxCell id="20" value="&lt;p style=&quot;margin: 0px ; margin-top: 4px ; text-align: center ; text-decoration: underline&quot;&gt;&lt;strong&gt;opt_in&lt;/strong&gt;&lt;/p&gt;&lt;hr&gt;&lt;p style=&quot;margin: 0px ; margin-left: 8px&quot;&gt;&lt;span&gt;hashid&lt;/span&gt;&lt;br&gt;&lt;/p&gt;&lt;p style=&quot;margin: 0px 0px 0px 8px&quot;&gt;tel1&lt;/p&gt;&lt;p style=&quot;margin: 0px 0px 0px 8px&quot;&gt;tel2&lt;/p&gt;&lt;p style=&quot;margin: 0px 0px 0px 8px&quot;&gt;email1&lt;/p&gt;&lt;p style=&quot;margin: 0px 0px 0px 8px&quot;&gt;email2&lt;/p&gt;&lt;p style=&quot;margin: 0px 0px 0px 8px&quot;&gt;email3&lt;/p&gt;&lt;p style=&quot;margin: 0px 0px 0px 8px&quot;&gt;&lt;br&gt;&lt;/p&gt;" style="verticalAlign=top;align=left;overflow=fill;fontSize=12;fontFamily=Helvetica;html=1;strokeColor=#003366;shadow=1;fillColor=#D4E1F5;fontColor=#003366" parent="sF7MwyPJBfuZg916_Yfn-118" vertex="1">
          <mxGeometry x="260" y="51.64" width="160" height="128.36" as="geometry" />
        </mxCell>
        <mxCell id="sF7MwyPJBfuZg916_Yfn-126" style="edgeStyle=orthogonalEdgeStyle;rounded=0;orthogonalLoop=1;jettySize=auto;html=1;exitX=0.5;exitY=1;exitDx=0;exitDy=0;entryX=0.5;entryY=0;entryDx=0;entryDy=0;" edge="1" parent="sF7MwyPJBfuZg916_Yfn-118" source="sF7MwyPJBfuZg916_Yfn-115" target="sF7MwyPJBfuZg916_Yfn-116">
          <mxGeometry relative="1" as="geometry">
            <mxPoint x="100" y="670.0000000000001" as="sourcePoint" />
          </mxGeometry>
        </mxCell>
        <mxCell id="sF7MwyPJBfuZg916_Yfn-115" value="&lt;p style=&quot;margin: 0px ; margin-top: 4px ; text-align: center ; text-decoration: underline&quot;&gt;&lt;b&gt;mart_&lt;/b&gt;&lt;b&gt;&lt;u&gt;accumulative&lt;/u&gt;&lt;/b&gt;&lt;/p&gt;&lt;hr&gt;&lt;p style=&quot;margin: 0px 0px 0px 8px&quot;&gt;dt&lt;/p&gt;&lt;hr&gt;&lt;p style=&quot;margin: 0px 0px 0px 8px&quot;&gt;contact_id&lt;br&gt;&lt;/p&gt;&lt;p style=&quot;margin: 0px 0px 0px 8px&quot;&gt;contact_type&lt;br&gt;&lt;/p&gt;&lt;p style=&quot;margin: 0px 0px 0px 8px&quot;&gt;encrypted_address&lt;/p&gt;&lt;p style=&quot;margin: 0px 0px 0px 8px&quot;&gt;age&lt;/p&gt;&lt;p style=&quot;margin: 0px 0px 0px 8px&quot;&gt;gender&lt;/p&gt;&lt;p style=&quot;margin: 0px 0px 0px 8px&quot;&gt;....&lt;/p&gt;" style="verticalAlign=top;align=left;overflow=fill;fontSize=12;fontFamily=Helvetica;html=1;strokeColor=#003366;shadow=1;fillColor=#D4E1F5;fontColor=#003366" vertex="1" parent="sF7MwyPJBfuZg916_Yfn-118">
          <mxGeometry x="20" y="560" width="160" height="150" as="geometry" />
        </mxCell>
        <mxCell id="sF7MwyPJBfuZg916_Yfn-120" style="edgeStyle=orthogonalEdgeStyle;rounded=0;orthogonalLoop=1;jettySize=auto;html=1;exitX=0.5;exitY=1;exitDx=0;exitDy=0;entryX=0.5;entryY=0;entryDx=0;entryDy=0;" edge="1" parent="sF7MwyPJBfuZg916_Yfn-118" source="sF7MwyPJBfuZg916_Yfn-129" target="sF7MwyPJBfuZg916_Yfn-115">
          <mxGeometry relative="1" as="geometry" />
        </mxCell>
        <mxCell id="sF7MwyPJBfuZg916_Yfn-146" style="edgeStyle=orthogonalEdgeStyle;curved=1;rounded=0;orthogonalLoop=1;jettySize=auto;html=1;exitX=0.5;exitY=1;exitDx=0;exitDy=0;entryX=0.5;entryY=0;entryDx=0;entryDy=0;" edge="1" parent="sF7MwyPJBfuZg916_Yfn-118" source="21" target="sF7MwyPJBfuZg916_Yfn-143">
          <mxGeometry relative="1" as="geometry" />
        </mxCell>
        <mxCell id="21" value="&lt;p style=&quot;margin: 0px ; margin-top: 4px ; text-align: center ; text-decoration: underline&quot;&gt;&lt;b&gt;mart&lt;/b&gt;&lt;/p&gt;&lt;hr&gt;&lt;p style=&quot;margin: 0px 0px 0px 8px&quot;&gt;hashid&lt;br&gt;&lt;/p&gt;&lt;p style=&quot;margin: 0px 0px 0px 8px&quot;&gt;tel1 ....&amp;nbsp;&lt;/p&gt;&lt;p style=&quot;margin: 0px 0px 0px 8px&quot;&gt;email1 ....&lt;/p&gt;&lt;p style=&quot;margin: 0px 0px 0px 8px&quot;&gt;age&lt;/p&gt;&lt;p style=&quot;margin: 0px 0px 0px 8px&quot;&gt;gender&lt;/p&gt;&lt;p style=&quot;margin: 0px 0px 0px 8px&quot;&gt;....&lt;/p&gt;" style="verticalAlign=top;align=left;overflow=fill;fontSize=12;fontFamily=Helvetica;html=1;strokeColor=#003366;shadow=1;fillColor=#D4E1F5;fontColor=#003366" parent="sF7MwyPJBfuZg916_Yfn-118" vertex="1">
          <mxGeometry x="20" y="50.82" width="160" height="139.18" as="geometry" />
        </mxCell>
        <mxCell id="sF7MwyPJBfuZg916_Yfn-128" style="edgeStyle=orthogonalEdgeStyle;curved=1;rounded=0;orthogonalLoop=1;jettySize=auto;html=1;exitX=0.5;exitY=1;exitDx=0;exitDy=0;" edge="1" parent="sF7MwyPJBfuZg916_Yfn-118" source="21" target="21">
          <mxGeometry relative="1" as="geometry" />
        </mxCell>
        <mxCell id="sF7MwyPJBfuZg916_Yfn-129" value="&lt;p style=&quot;margin: 0px ; margin-top: 4px ; text-align: center ; text-decoration: underline&quot;&gt;&lt;b&gt;mart_&lt;/b&gt;&lt;b&gt;&lt;u&gt;monthly&lt;/u&gt;&lt;/b&gt;&lt;/p&gt;&lt;hr&gt;&lt;p style=&quot;margin: 0px 0px 0px 8px&quot;&gt;dt&lt;br&gt;&lt;/p&gt;&lt;hr&gt;&lt;p style=&quot;margin: 0px 0px 0px 8px&quot;&gt;contact_id&lt;br&gt;&lt;/p&gt;&lt;p style=&quot;margin: 0px 0px 0px 8px&quot;&gt;contact_type&lt;br&gt;&lt;/p&gt;&lt;p style=&quot;margin: 0px 0px 0px 8px&quot;&gt;encrypted_address&lt;/p&gt;&lt;p style=&quot;margin: 0px 0px 0px 8px&quot;&gt;age&lt;/p&gt;&lt;p style=&quot;margin: 0px 0px 0px 8px&quot;&gt;gender&lt;/p&gt;&lt;p style=&quot;margin: 0px 0px 0px 8px&quot;&gt;....&lt;/p&gt;&lt;div&gt;&lt;br&gt;&lt;/div&gt;" style="verticalAlign=top;align=left;overflow=fill;fontSize=12;fontFamily=Helvetica;html=1;strokeColor=#003366;shadow=1;fillColor=#D4E1F5;fontColor=#003366" vertex="1" parent="sF7MwyPJBfuZg916_Yfn-118">
          <mxGeometry x="20" y="389" width="160" height="151" as="geometry" />
        </mxCell>
        <mxCell id="sF7MwyPJBfuZg916_Yfn-145" style="edgeStyle=orthogonalEdgeStyle;curved=1;rounded=0;orthogonalLoop=1;jettySize=auto;html=1;exitX=0.5;exitY=1;exitDx=0;exitDy=0;entryX=0.5;entryY=0;entryDx=0;entryDy=0;" edge="1" parent="sF7MwyPJBfuZg916_Yfn-118" source="sF7MwyPJBfuZg916_Yfn-143" target="sF7MwyPJBfuZg916_Yfn-129">
          <mxGeometry relative="1" as="geometry" />
        </mxCell>
        <mxCell id="sF7MwyPJBfuZg916_Yfn-143" value="&lt;p style=&quot;margin: 0px ; margin-top: 4px ; text-align: center ; text-decoration: underline&quot;&gt;&lt;b&gt;mart_&lt;/b&gt;&lt;b&gt;&lt;u&gt;daily&lt;/u&gt;&lt;/b&gt;&lt;br&gt;&lt;/p&gt;&lt;hr&gt;&lt;p style=&quot;margin: 0px 0px 0px 8px&quot;&gt;dt&lt;br&gt;&lt;/p&gt;&lt;hr&gt;&lt;p style=&quot;margin: 0px 0px 0px 8px&quot;&gt;contact_id&lt;br&gt;&lt;/p&gt;&lt;p style=&quot;margin: 0px 0px 0px 8px&quot;&gt;contact_type&lt;br&gt;&lt;/p&gt;&lt;p style=&quot;margin: 0px 0px 0px 8px&quot;&gt;encrypted_address&lt;/p&gt;&lt;p style=&quot;margin: 0px 0px 0px 8px&quot;&gt;age&lt;/p&gt;&lt;p style=&quot;margin: 0px 0px 0px 8px&quot;&gt;gender&lt;/p&gt;&lt;p style=&quot;margin: 0px 0px 0px 8px&quot;&gt;....&lt;/p&gt;" style="verticalAlign=top;align=left;overflow=fill;fontSize=12;fontFamily=Helvetica;html=1;strokeColor=#003366;shadow=1;fillColor=#D4E1F5;fontColor=#003366" vertex="1" parent="sF7MwyPJBfuZg916_Yfn-118">
          <mxGeometry x="20" y="216" width="160" height="150" as="geometry" />
        </mxCell>
        <mxCell id="sF7MwyPJBfuZg916_Yfn-149" value="" style="edgeStyle=orthogonalEdgeStyle;curved=1;rounded=0;orthogonalLoop=1;jettySize=auto;html=1;exitX=1;exitY=0.307;exitDx=0;exitDy=0;endArrow=none;startArrow=classic;startFill=1;exitPerimeter=0;" edge="1" parent="sF7MwyPJBfuZg916_Yfn-118" source="sF7MwyPJBfuZg916_Yfn-115" target="sF7MwyPJBfuZg916_Yfn-143">
          <mxGeometry relative="1" as="geometry">
            <mxPoint x="240" y="817.7950000000001" as="sourcePoint" />
            <mxPoint x="240" y="580" as="targetPoint" />
            <Array as="points">
              <mxPoint x="240" y="606" />
              <mxPoint x="240" y="330" />
            </Array>
          </mxGeometry>
        </mxCell>
        <mxCell id="sF7MwyPJBfuZg916_Yfn-148" value="日次作成" style="rounded=1;whiteSpace=wrap;html=1;" vertex="1" parent="sF7MwyPJBfuZg916_Yfn-118">
          <mxGeometry x="210" y="470" width="90" height="38" as="geometry" />
        </mxCell>
        <mxCell id="sF7MwyPJBfuZg916_Yfn-173" value="&lt;p style=&quot;margin: 0px ; margin-top: 4px ; text-align: center ; text-decoration: underline&quot;&gt;&lt;strong&gt;opt_in_contacts&lt;/strong&gt;&lt;/p&gt;&lt;hr&gt;&lt;p style=&quot;margin: 0px ; margin-left: 8px&quot;&gt;dt&lt;/p&gt;&lt;hr&gt;&lt;p style=&quot;margin: 0px 0px 0px 8px&quot;&gt;contact_id&lt;br&gt;&lt;/p&gt;&lt;p style=&quot;margin: 0px 0px 0px 8px&quot;&gt;contact_type&lt;/p&gt;&lt;p style=&quot;margin: 0px 0px 0px 8px&quot;&gt;encrypted_address&lt;br&gt;&lt;/p&gt;" style="verticalAlign=top;align=left;overflow=fill;fontSize=12;fontFamily=Helvetica;html=1;strokeColor=#003366;shadow=1;fillColor=#D4E1F5;fontColor=#003366" vertex="1" parent="sF7MwyPJBfuZg916_Yfn-118">
          <mxGeometry x="260" y="219" width="160" height="119.18" as="geometry" />
        </mxCell>
        <mxCell id="25" value="&lt;p style=&quot;margin: 0px ; margin-top: 4px ; text-align: center ; text-decoration: underline&quot;&gt;&lt;b&gt;Mart&lt;/b&gt;&lt;/p&gt;&lt;hr&gt;&lt;p style=&quot;margin: 0px ; margin-left: 8px&quot;&gt;hashid&lt;br&gt;&lt;/p&gt;" style="verticalAlign=top;align=left;overflow=fill;fontSize=12;fontFamily=Helvetica;html=1;strokeColor=#003366;shadow=1;fillColor=#D4E1F5;fontColor=#003366" parent="sF7MwyPJBfuZg916_Yfn-117" vertex="1">
          <mxGeometry x="20" y="61.64" width="160" height="68.36" as="geometry" />
        </mxCell>
        <mxCell id="90" value="" style="endArrow=open;startArrow=diamondThin;startFill=0;edgeStyle=orthogonalEdgeStyle" parent="sF7MwyPJBfuZg916_Yfn-117" source="25" target="21" edge="1">
          <mxGeometry x="600" y="360" as="geometry">
            <mxPoint x="600" y="360" as="sourcePoint" />
            <mxPoint x="760" y="360" as="targetPoint" />
          </mxGeometry>
        </mxCell>
        <mxCell id="19" value="&lt;p style=&quot;margin: 0px ; margin-top: 4px ; text-align: center ; text-decoration: underline&quot;&gt;&lt;strong&gt;Optin&lt;/strong&gt;&lt;/p&gt;&lt;hr&gt;&lt;p style=&quot;margin: 0px ; margin-left: 8px&quot;&gt;hashid&lt;br&gt;&lt;/p&gt;&lt;p style=&quot;margin: 0px ; margin-left: 8px&quot;&gt;&lt;br&gt;&lt;/p&gt;" style="verticalAlign=top;align=left;overflow=fill;fontSize=12;fontFamily=Helvetica;html=1;strokeColor=#003366;shadow=1;fillColor=#D4E1F5;fontColor=#003366" parent="sF7MwyPJBfuZg916_Yfn-117" vertex="1">
          <mxGeometry x="260" y="62.46" width="160" height="67.54" as="geometry" />
        </mxCell>
        <mxCell id="36" value="" style="endArrow=open;startArrow=diamondThin;startFill=0;edgeStyle=orthogonalEdgeStyle;entryX=0.5;entryY=0;entryDx=0;entryDy=0;" parent="sF7MwyPJBfuZg916_Yfn-117" source="19" target="20" edge="1">
          <mxGeometry x="-60" y="200.82" as="geometry">
            <mxPoint x="-60" y="200.82" as="sourcePoint" />
            <mxPoint x="330" y="442.46" as="targetPoint" />
          </mxGeometry>
        </mxCell>
        <mxCell id="sF7MwyPJBfuZg916_Yfn-125" style="edgeStyle=orthogonalEdgeStyle;rounded=0;orthogonalLoop=1;jettySize=auto;html=1;exitX=0;exitY=0.5;exitDx=0;exitDy=0;" edge="1" parent="1" source="sF7MwyPJBfuZg916_Yfn-124" target="sF7MwyPJBfuZg916_Yfn-116">
          <mxGeometry relative="1" as="geometry">
            <mxPoint x="240" y="913.82" as="targetPoint" />
          </mxGeometry>
        </mxCell>
        <mxCell id="sF7MwyPJBfuZg916_Yfn-124" value="&lt;p style=&quot;margin: 0px ; margin-top: 4px ; text-align: center ; text-decoration: underline&quot;&gt;&lt;strong&gt;mapping&lt;/strong&gt;&lt;/p&gt;&lt;hr&gt;&lt;p style=&quot;margin: 0px ; margin-left: 8px&quot;&gt;dt&lt;/p&gt;&lt;hr&gt;&lt;blockquote style=&quot;margin: 0 0 0 40px ; border: none ; padding: 0px&quot;&gt;&lt;/blockquote&gt;&lt;span&gt;&lt;div&gt;&lt;span&gt;&amp;nbsp;uuid&lt;/span&gt;&lt;/div&gt;&lt;/span&gt;&lt;div&gt;&lt;span&gt;&amp;nbsp;hashedid&lt;/span&gt;&lt;/div&gt;" style="verticalAlign=top;align=left;overflow=fill;fontSize=12;fontFamily=Helvetica;html=1;strokeColor=#003366;shadow=1;fillColor=#D4E1F5;fontColor=#003366" vertex="1" parent="1">
          <mxGeometry x="600" y="942.82" width="160" height="119.18" as="geometry" />
        </mxCell>
        <mxCell id="sF7MwyPJBfuZg916_Yfn-138" value="月次作成" style="rounded=1;whiteSpace=wrap;html=1;" vertex="1" parent="1">
          <mxGeometry x="10" y="566" width="90" height="38" as="geometry" />
        </mxCell>
      </root>
    </mxGraphModel>
  </diagram>
</mxfile>
